<svg xmlns="http://www.w3.org/2000/svg" xmlns:xlink="http://www.w3.org/1999/xlink" width="435" zoomAndPan="magnify" viewBox="0 0 326.25 580.499982" height="774" preserveAspectRatio="xMidYMid meet" version="1.0"><defs><clipPath id="6ec7abc12b"><path d="M 152 254.75 L 159 254.75 L 159 265 L 152 265 Z M 152 254.75 " clip-rule="nonzero"/></clipPath><clipPath id="d92d18f695"><path d="M 26.3125 265.378906 L 159.269531 265.378906 L 159.269531 281.644531 L 26.3125 281.644531 Z M 26.3125 265.378906 " clip-rule="nonzero"/></clipPath><clipPath id="ebb6f59066"><path d="M 156 254.75 L 162 254.75 L 162 272 L 156 272 Z M 156 254.75 " clip-rule="nonzero"/></clipPath><clipPath id="a33cce714f"><path d="M 166 265.378906 L 299.175781 265.378906 L 299.175781 281.644531 L 166 281.644531 Z M 166 265.378906 " clip-rule="nonzero"/></clipPath><clipPath id="d4e2a044ee"><path d="M 166 254.75 L 174 254.75 L 174 265 L 166 265 Z M 166 254.75 " clip-rule="nonzero"/></clipPath><clipPath id="3d01996d90"><path d="M 163 254.75 L 170 254.75 L 170 272 L 163 272 Z M 163 254.75 " clip-rule="nonzero"/></clipPath></defs><path fill="#f8f4ee" d="M 134.089844 266.726562 C 134.050781 267.214844 134.175781 267.671875 134.371094 268.035156 C 134.570312 268.398438 134.839844 268.65625 135.101562 268.847656 C 135.628906 269.222656 136.125 269.359375 136.523438 269.445312 C 136.921875 269.523438 137.230469 269.535156 137.4375 269.539062 C 137.644531 269.539062 137.75 269.53125 137.75 269.53125 C 137.75 269.53125 137.652344 269.492188 137.460938 269.414062 C 137.273438 269.335938 137.003906 269.210938 136.6875 269.015625 C 136.378906 268.820312 136.011719 268.546875 135.742188 268.171875 C 135.46875 267.804688 135.382812 267.347656 135.539062 266.972656 C 135.691406 266.605469 136.113281 266.238281 136.605469 266.121094 C 137.125 265.980469 137.796875 266.019531 138.578125 266.191406 C 140.132812 266.496094 141.78125 267.273438 143.652344 268.152344 C 144.585938 268.589844 145.542969 269.023438 146.527344 269.371094 C 147.507812 269.722656 148.480469 269.984375 149.414062 270.164062 C 151.289062 270.523438 153.003906 270.582031 154.417969 270.492188 C 155.839844 270.402344 156.960938 270.179688 157.722656 269.992188 C 158.101562 269.902344 158.394531 269.8125 158.589844 269.753906 C 158.785156 269.691406 158.890625 269.660156 158.890625 269.660156 C 158.890625 269.660156 158.78125 269.648438 158.578125 269.628906 C 158.375 269.609375 158.074219 269.582031 157.691406 269.535156 C 156.925781 269.445312 155.832031 269.296875 154.519531 269.023438 C 153.210938 268.75 151.683594 268.34375 150.066406 267.765625 C 149.253906 267.476562 148.421875 267.136719 147.578125 266.757812 C 146.730469 266.378906 145.847656 265.929688 144.894531 265.488281 C 143 264.597656 140.925781 263.808594 138.863281 263.722656 C 137.863281 263.664062 136.75 263.761719 135.789062 264.28125 C 134.808594 264.8125 134.171875 265.742188 134.089844 266.726562 " fill-opacity="1" fill-rule="nonzero"/><path fill="#f8f4ee" d="M 143.320312 258.261719 C 143.75 258.507812 144.335938 258.910156 144.984375 259.441406 C 145.640625 259.972656 146.351562 260.664062 147.132812 261.449219 C 147.917969 262.238281 148.773438 263.136719 149.773438 264.042969 C 150.792969 264.960938 151.886719 265.761719 152.992188 266.355469 C 154.097656 266.945312 155.195312 267.332031 156.148438 267.484375 C 157.105469 267.640625 157.882812 267.609375 158.402344 267.519531 C 158.660156 267.488281 158.859375 267.421875 158.992188 267.394531 C 159.121094 267.359375 159.191406 267.339844 159.191406 267.339844 C 159.191406 267.339844 159.121094 267.316406 158.996094 267.265625 C 158.867188 267.214844 158.679688 267.167969 158.453125 267.0625 C 157.992188 266.882812 157.363281 266.5625 156.667969 266.105469 C 155.972656 265.65625 155.214844 265.035156 154.402344 264.308594 C 153.578125 263.550781 152.683594 262.722656 151.746094 261.859375 C 150.757812 260.960938 149.714844 260.140625 148.667969 259.496094 C 147.617188 258.847656 146.574219 258.378906 145.652344 258.128906 C 144.730469 257.871094 143.957031 257.800781 143.433594 257.816406 C 143.175781 257.8125 142.972656 257.84375 142.835938 257.851562 C 142.699219 257.867188 142.628906 257.875 142.628906 257.875 C 142.628906 257.875 142.695312 257.910156 142.8125 257.976562 C 142.929688 258.046875 143.105469 258.125 143.320312 258.261719 " fill-opacity="1" fill-rule="nonzero"/><g clip-path="url(#6ec7abc12b)"><path fill="#f8f4ee" d="M 153.527344 261.023438 C 154.144531 261.773438 154.851562 262.320312 155.488281 262.75 C 156.128906 263.175781 156.707031 263.507812 157.191406 263.800781 C 157.671875 264.09375 158.058594 264.34375 158.324219 264.535156 C 158.585938 264.726562 158.738281 264.835938 158.738281 264.835938 C 158.738281 264.835938 158.695312 264.65625 158.566406 264.34375 C 158.4375 264.03125 158.210938 263.589844 157.871094 263.09375 C 157.53125 262.597656 157.074219 262.046875 156.570312 261.496094 C 156.070312 260.941406 155.535156 260.375 155.050781 259.78125 C 154.570312 259.195312 154.1875 258.613281 153.964844 258.0625 C 153.742188 257.507812 153.660156 256.917969 153.695312 256.421875 C 153.726562 255.925781 153.867188 255.503906 154.015625 255.234375 C 154.09375 255.097656 154.160156 254.988281 154.214844 254.921875 C 154.265625 254.851562 154.292969 254.8125 154.292969 254.8125 C 154.292969 254.8125 154.246094 254.824219 154.164062 254.851562 C 154.074219 254.878906 153.957031 254.929688 153.800781 255.015625 C 153.496094 255.183594 153.078125 255.535156 152.757812 256.125 C 152.441406 256.707031 152.238281 257.519531 152.351562 258.433594 C 152.46875 259.359375 152.910156 260.265625 153.527344 261.023438 " fill-opacity="1" fill-rule="nonzero"/></g><g clip-path="url(#d92d18f695)"><path fill="#f8f4ee" d="M 136.941406 274.683594 C 136.871094 274.429688 136.75 274.160156 136.554688 273.898438 C 136.195312 273.425781 135.621094 273.054688 134.96875 272.804688 C 134.308594 272.550781 133.613281 272.390625 132.863281 272.210938 C 132.113281 272.039062 131.304688 271.882812 130.445312 271.757812 C 130.308594 271.734375 130.160156 271.722656 130.019531 271.703125 C 129.886719 271.375 129.671875 270.996094 129.332031 270.625 C 129.058594 270.328125 128.695312 270.039062 128.25 269.820312 C 127.808594 269.605469 127.308594 269.460938 126.8125 269.367188 C 126.3125 269.273438 125.8125 269.226562 125.335938 269.171875 C 125.09375 269.140625 124.875 269.113281 124.664062 269.070312 C 124.449219 269.027344 124.238281 268.976562 124.039062 268.910156 C 123.222656 268.640625 122.804688 268.253906 122.71875 267.71875 C 122.667969 267.449219 122.71875 267.175781 122.835938 266.96875 C 122.945312 266.757812 123.175781 266.578125 123.410156 266.488281 C 123.648438 266.394531 123.902344 266.382812 124.113281 266.4375 C 124.320312 266.488281 124.5 266.617188 124.609375 266.746094 C 124.84375 267.015625 124.792969 267.285156 124.800781 267.273438 C 124.796875 267.273438 124.835938 267.230469 124.875 267.125 C 124.914062 267.019531 124.941406 266.839844 124.890625 266.613281 C 124.832031 266.394531 124.699219 266.125 124.421875 265.894531 C 124.144531 265.671875 123.746094 265.515625 123.285156 265.515625 C 122.832031 265.515625 122.304688 265.65625 121.851562 266.054688 C 121.402344 266.453125 121.105469 267.058594 121.0625 267.714844 C 121.035156 268.046875 121.074219 268.394531 121.183594 268.738281 C 121.304688 269.085938 121.480469 269.398438 121.714844 269.675781 C 122.1875 270.234375 122.816406 270.574219 123.433594 270.777344 C 124.046875 270.980469 124.691406 271.042969 125.214844 271.046875 C 125.75 271.050781 126.230469 271.023438 126.65625 271.015625 C 127.511719 271 128.160156 271.097656 128.722656 271.394531 C 128.835938 271.449219 128.9375 271.515625 129.035156 271.582031 C 128.609375 271.535156 128.175781 271.5 127.734375 271.472656 C 126.789062 271.410156 125.804688 271.40625 124.835938 271.410156 C 122.890625 271.425781 121.125 271.40625 119.628906 270.980469 C 118.890625 270.785156 118.253906 270.492188 117.816406 270.089844 C 117.710938 269.988281 117.609375 269.882812 117.527344 269.769531 C 117.453125 269.664062 117.386719 269.554688 117.335938 269.433594 C 117.234375 269.1875 117.183594 268.921875 117.195312 268.671875 C 117.207031 268.425781 117.265625 268.195312 117.378906 268.007812 C 117.433594 267.914062 117.503906 267.835938 117.578125 267.761719 C 117.648438 267.695312 117.726562 267.640625 117.8125 267.601562 C 118.175781 267.441406 118.609375 267.511719 118.890625 267.660156 C 119.183594 267.804688 119.339844 268.035156 119.402344 268.203125 C 119.46875 268.375 119.457031 268.484375 119.46875 268.484375 C 119.457031 268.484375 119.503906 268.382812 119.484375 268.183594 C 119.472656 267.992188 119.371094 267.675781 119.066406 267.410156 C 118.769531 267.148438 118.285156 266.898438 117.644531 267.003906 C 116.980469 267.125 116.40625 267.738281 116.226562 268.515625 C 116.132812 268.902344 116.128906 269.328125 116.21875 269.757812 C 116.261719 269.972656 116.34375 270.195312 116.445312 270.402344 C 116.546875 270.605469 116.675781 270.800781 116.816406 270.984375 C 117.394531 271.714844 118.230469 272.210938 119.097656 272.550781 C 120.835938 273.25 122.871094 273.390625 124.839844 273.375 C 125.832031 273.367188 126.765625 273.34375 127.671875 273.347656 C 128.578125 273.351562 129.453125 273.371094 130.289062 273.40625 C 131.125 273.4375 131.917969 273.484375 132.664062 273.539062 C 133.410156 273.597656 134.113281 273.640625 134.691406 273.746094 C 135.273438 273.847656 135.761719 274.042969 136.097656 274.320312 C 136.226562 274.429688 136.328125 274.550781 136.417969 274.671875 C 132.960938 274.617188 128.984375 274.585938 124.398438 274.585938 C 95.320312 274.585938 51.003906 275.898438 35.921875 276.375 C 34.347656 275.621094 31.410156 272.542969 31.410156 271.449219 C 31.410156 272.699219 27.5625 276.546875 26.3125 276.546875 C 27.5625 276.546875 31.410156 280.390625 31.410156 281.644531 C 31.410156 280.546875 34.347656 277.472656 35.921875 276.714844 C 51.003906 277.191406 95.320312 278.507812 124.398438 278.507812 C 159.898438 278.507812 159.238281 276.546875 159.238281 276.546875 C 159.238281 276.546875 159.726562 275.082031 136.941406 274.683594 " fill-opacity="1" fill-rule="nonzero"/></g><path fill="#f8f4ee" d="M 130.570312 267.351562 C 130.867188 267.996094 131.195312 268.460938 131.449219 268.757812 C 131.699219 269.050781 131.855469 269.191406 131.855469 269.191406 C 131.855469 269.191406 131.808594 268.984375 131.722656 268.621094 C 131.644531 268.257812 131.558594 267.734375 131.519531 267.105469 C 131.433594 265.847656 131.617188 264.164062 132.300781 262.566406 C 132.984375 260.96875 134.078125 259.679688 135.046875 258.875 C 135.53125 258.472656 135.96875 258.167969 136.289062 257.976562 C 136.609375 257.789062 136.796875 257.679688 136.796875 257.679688 C 136.796875 257.679688 136.582031 257.664062 136.195312 257.6875 C 135.808594 257.707031 135.246094 257.789062 134.574219 258.015625 C 133.898438 258.246094 133.125 258.640625 132.382812 259.265625 C 131.644531 259.882812 130.953125 260.746094 130.496094 261.792969 C 130.050781 262.847656 129.902344 263.941406 129.964844 264.90625 C 130.023438 265.871094 130.269531 266.707031 130.570312 267.351562 " fill-opacity="1" fill-rule="nonzero"/><path fill="#f8f4ee" d="M 160.277344 272.464844 C 159.902344 272.371094 159.609375 272.601562 159.175781 273.152344 C 158.949219 273.429688 158.726562 273.800781 158.34375 274.152344 C 157.972656 274.5 157.417969 274.820312 156.726562 274.832031 C 157.390625 274.972656 158.070312 274.988281 158.6875 274.84375 C 159.308594 274.707031 159.859375 274.410156 160.203125 273.992188 C 160.546875 273.570312 160.636719 273.171875 160.617188 272.917969 C 160.585938 272.648438 160.453125 272.515625 160.277344 272.464844 " fill-opacity="1" fill-rule="nonzero"/><path fill="#f8f4ee" d="M 158.011719 272.25 C 157.648438 272.214844 157.339844 272.328125 157.304688 272.679688 C 157.273438 273.03125 157.730469 273.507812 157.839844 274.054688 C 158.027344 273.535156 158.589844 273.160156 158.625 272.804688 C 158.65625 272.453125 158.375 272.28125 158.011719 272.25 " fill-opacity="1" fill-rule="nonzero"/><path fill="#f8f4ee" d="M 154.578125 272.460938 C 153.804688 272.265625 153.46875 272.597656 153.464844 272.949219 C 153.453125 273.324219 153.679688 273.597656 154.230469 273.738281 C 154.511719 273.816406 154.855469 273.808594 155.265625 273.871094 C 155.671875 273.929688 156.140625 274.070312 156.550781 274.394531 C 156.253906 273.972656 155.972656 273.550781 155.644531 273.199219 C 155.324219 272.84375 154.957031 272.5625 154.578125 272.460938 " fill-opacity="1" fill-rule="nonzero"/><g clip-path="url(#ebb6f59066)"><path fill="#f8f4ee" d="M 158.671875 256.621094 C 158.65625 256.632812 158.648438 256.640625 158.636719 256.648438 C 158.621094 256.636719 158.597656 256.632812 158.578125 256.621094 C 158.605469 256.625 158.636719 256.625 158.671875 256.621094 Z M 159.871094 262.773438 C 159.511719 262.277344 159.136719 261.816406 158.769531 261.386719 C 158.402344 260.949219 158.039062 260.554688 157.746094 260.164062 C 157.457031 259.773438 157.230469 259.386719 157.113281 258.992188 C 156.988281 258.601562 156.964844 258.207031 157.039062 257.871094 C 157.167969 257.183594 157.734375 256.800781 158.128906 256.707031 C 158.328125 256.660156 158.492188 256.664062 158.601562 256.679688 C 158.574219 256.710938 158.515625 256.78125 158.484375 256.878906 C 158.4375 257.011719 158.433594 257.1875 158.589844 257.40625 C 158.742188 257.621094 159.019531 257.875 159.242188 258.121094 C 159.464844 258.363281 159.636719 258.582031 159.636719 258.582031 C 159.636719 258.582031 159.707031 258.3125 159.699219 257.945312 C 159.699219 257.582031 159.59375 257.125 159.394531 256.847656 C 159.226562 256.605469 159.050781 256.546875 158.914062 256.550781 C 158.945312 256.535156 158.972656 256.519531 159.003906 256.5 C 159.3125 256.3125 159.578125 255.898438 159.683594 255.542969 C 159.792969 255.1875 159.773438 254.910156 159.773438 254.910156 C 159.773438 254.910156 159.5625 255.089844 159.289062 255.25 C 159.015625 255.417969 158.6875 255.542969 158.476562 255.671875 C 158.273438 255.800781 158.207031 255.953125 158.191406 256.09375 C 158.171875 256.230469 158.214844 256.347656 158.214844 256.347656 C 158.214844 256.347656 158.25 256.460938 158.367188 256.550781 C 158.386719 256.5625 158.40625 256.574219 158.425781 256.582031 C 158.335938 256.5625 158.234375 256.554688 158.109375 256.558594 C 157.875 256.566406 157.585938 256.636719 157.296875 256.820312 C 157.007812 256.996094 156.722656 257.3125 156.566406 257.730469 C 156.410156 258.144531 156.367188 258.640625 156.460938 259.144531 C 156.546875 259.65625 156.773438 260.160156 157.0625 260.628906 C 157.355469 261.097656 157.699219 261.53125 158.039062 261.976562 C 158.382812 262.421875 158.738281 262.875 159.078125 263.347656 C 159.761719 264.292969 160.328125 265.230469 160.660156 266.152344 C 160.992188 267.0625 161.085938 267.964844 161.027344 268.710938 C 160.972656 269.460938 160.75 270.050781 160.554688 270.433594 C 160.449219 270.621094 160.363281 270.769531 160.292969 270.859375 C 160.226562 270.957031 160.191406 271.007812 160.191406 271.007812 C 160.191406 271.007812 160.238281 270.964844 160.324219 270.886719 C 160.414062 270.816406 160.53125 270.6875 160.679688 270.519531 C 160.964844 270.171875 161.324219 269.59375 161.511719 268.789062 C 161.703125 267.992188 161.734375 266.976562 161.449219 265.90625 C 161.171875 264.839844 160.59375 263.765625 159.871094 262.773438 " fill-opacity="1" fill-rule="nonzero"/></g><path fill="#f8f4ee" d="M 159.410156 256.527344 C 159.410156 256.527344 159.421875 257.019531 159.820312 257.003906 C 160.222656 256.988281 160.863281 256.472656 160.863281 256.472656 C 160.863281 256.472656 160.1875 256.007812 159.785156 256.023438 C 159.382812 256.039062 159.410156 256.527344 159.410156 256.527344 " fill-opacity="1" fill-rule="nonzero"/><g clip-path="url(#a33cce714f)"><path fill="#f8f4ee" d="M 294.078125 271.449219 C 294.078125 272.542969 291.136719 275.621094 289.5625 276.375 C 274.484375 275.898438 230.167969 274.585938 201.085938 274.585938 C 196.5 274.585938 192.523438 274.617188 189.066406 274.671875 C 189.15625 274.550781 189.257812 274.429688 189.386719 274.320312 C 189.722656 274.042969 190.214844 273.847656 190.796875 273.746094 C 191.371094 273.640625 192.078125 273.597656 192.820312 273.539062 C 193.566406 273.484375 194.363281 273.4375 195.195312 273.40625 C 196.03125 273.371094 196.90625 273.351562 197.8125 273.347656 C 198.71875 273.34375 199.652344 273.367188 200.644531 273.375 C 202.613281 273.390625 204.648438 273.25 206.386719 272.550781 C 207.253906 272.210938 208.089844 271.714844 208.667969 270.984375 C 208.8125 270.800781 208.9375 270.605469 209.039062 270.402344 C 209.140625 270.195312 209.222656 269.972656 209.265625 269.757812 C 209.359375 269.328125 209.351562 268.902344 209.257812 268.515625 C 209.078125 267.738281 208.503906 267.125 207.839844 267.003906 C 207.199219 266.898438 206.714844 267.148438 206.421875 267.410156 C 206.113281 267.675781 206.011719 267.992188 206 268.183594 C 205.984375 268.382812 206.027344 268.484375 206.019531 268.484375 C 206.027344 268.484375 206.015625 268.375 206.082031 268.203125 C 206.144531 268.035156 206.300781 267.804688 206.597656 267.660156 C 206.875 267.511719 207.308594 267.441406 207.671875 267.601562 C 207.761719 267.640625 207.839844 267.695312 207.910156 267.761719 C 207.984375 267.835938 208.054688 267.914062 208.105469 268.007812 C 208.21875 268.195312 208.28125 268.425781 208.289062 268.671875 C 208.300781 268.921875 208.25 269.1875 208.148438 269.433594 C 208.097656 269.554688 208.03125 269.664062 207.953125 269.769531 C 207.875 269.882812 207.777344 269.988281 207.667969 270.089844 C 207.234375 270.492188 206.597656 270.785156 205.855469 270.980469 C 204.359375 271.40625 202.59375 271.425781 200.652344 271.410156 C 199.679688 271.40625 198.695312 271.410156 197.75 271.472656 C 197.308594 271.5 196.875 271.535156 196.449219 271.582031 C 196.550781 271.515625 196.652344 271.449219 196.765625 271.394531 C 197.324219 271.097656 197.972656 271 198.828125 271.015625 C 199.257812 271.023438 199.734375 271.050781 200.269531 271.046875 C 200.796875 271.042969 201.4375 270.980469 202.050781 270.777344 C 202.671875 270.574219 203.296875 270.234375 203.769531 269.675781 C 204.007812 269.398438 204.183594 269.085938 204.300781 268.738281 C 204.410156 268.394531 204.449219 268.046875 204.425781 267.714844 C 204.378906 267.058594 204.082031 266.453125 203.636719 266.054688 C 203.179688 265.65625 202.65625 265.515625 202.199219 265.515625 C 201.738281 265.515625 201.339844 265.671875 201.0625 265.894531 C 200.785156 266.125 200.652344 266.394531 200.597656 266.613281 C 200.542969 266.839844 200.570312 267.019531 200.613281 267.125 C 200.648438 267.230469 200.6875 267.273438 200.683594 267.273438 C 200.695312 267.285156 200.640625 267.015625 200.871094 266.746094 C 200.984375 266.617188 201.164062 266.488281 201.375 266.4375 C 201.582031 266.382812 201.835938 266.394531 202.074219 266.488281 C 202.3125 266.578125 202.539062 266.757812 202.652344 266.96875 C 202.769531 267.175781 202.816406 267.449219 202.769531 267.71875 C 202.683594 268.253906 202.261719 268.640625 201.445312 268.910156 C 201.246094 268.976562 201.035156 269.027344 200.824219 269.070312 C 200.613281 269.113281 200.390625 269.140625 200.148438 269.171875 C 199.675781 269.226562 199.171875 269.273438 198.671875 269.367188 C 198.175781 269.460938 197.675781 269.605469 197.238281 269.820312 C 196.792969 270.039062 196.425781 270.328125 196.152344 270.625 C 195.8125 270.996094 195.597656 271.375 195.464844 271.703125 C 195.324219 271.722656 195.179688 271.734375 195.039062 271.757812 C 194.179688 271.882812 193.371094 272.039062 192.621094 272.210938 C 191.875 272.390625 191.179688 272.550781 190.519531 272.804688 C 189.863281 273.054688 189.292969 273.425781 188.929688 273.898438 C 188.734375 274.160156 188.613281 274.429688 188.542969 274.683594 C 165.757812 275.082031 166.246094 276.546875 166.246094 276.546875 C 166.246094 276.546875 165.585938 278.507812 201.085938 278.507812 C 230.167969 278.507812 274.484375 277.191406 289.5625 276.714844 C 291.136719 277.472656 294.078125 280.546875 294.078125 281.644531 C 294.078125 280.390625 297.921875 276.546875 299.175781 276.546875 C 297.921875 276.546875 294.078125 272.699219 294.078125 271.449219 " fill-opacity="1" fill-rule="nonzero"/></g><path fill="#f8f4ee" d="M 177.910156 266.757812 C 177.0625 267.136719 176.230469 267.476562 175.421875 267.765625 C 173.800781 268.34375 172.273438 268.75 170.964844 269.023438 C 169.652344 269.296875 168.558594 269.445312 167.792969 269.535156 C 167.410156 269.582031 167.113281 269.609375 166.90625 269.628906 C 166.703125 269.648438 166.597656 269.660156 166.597656 269.660156 C 166.597656 269.660156 166.699219 269.691406 166.894531 269.753906 C 167.089844 269.8125 167.382812 269.902344 167.761719 269.992188 C 168.527344 270.179688 169.648438 270.402344 171.066406 270.492188 C 172.484375 270.582031 174.199219 270.523438 176.070312 270.164062 C 177.003906 269.984375 177.976562 269.722656 178.960938 269.371094 C 179.941406 269.023438 180.894531 268.589844 181.835938 268.152344 C 183.707031 267.273438 185.351562 266.496094 186.910156 266.191406 C 187.6875 266.019531 188.359375 265.980469 188.878906 266.121094 C 189.371094 266.238281 189.792969 266.605469 189.945312 266.972656 C 190.105469 267.347656 190.015625 267.804688 189.742188 268.171875 C 189.472656 268.546875 189.109375 268.820312 188.796875 269.015625 C 188.480469 269.210938 188.210938 269.335938 188.023438 269.414062 C 187.835938 269.492188 187.734375 269.53125 187.734375 269.53125 C 187.734375 269.53125 187.84375 269.539062 188.046875 269.539062 C 188.257812 269.535156 188.5625 269.523438 188.964844 269.445312 C 189.359375 269.359375 189.855469 269.222656 190.386719 268.847656 C 190.644531 268.65625 190.910156 268.398438 191.113281 268.035156 C 191.3125 267.671875 191.433594 267.214844 191.394531 266.726562 C 191.3125 265.742188 190.675781 264.8125 189.699219 264.28125 C 188.738281 263.761719 187.621094 263.664062 186.621094 263.722656 C 184.5625 263.808594 182.484375 264.597656 180.589844 265.488281 C 179.640625 265.929688 178.753906 266.378906 177.910156 266.757812 " fill-opacity="1" fill-rule="nonzero"/><path fill="#f8f4ee" d="M 168.816406 266.105469 C 168.121094 266.5625 167.492188 266.882812 167.03125 267.0625 C 166.804688 267.167969 166.617188 267.214844 166.492188 267.265625 C 166.363281 267.316406 166.292969 267.339844 166.292969 267.339844 C 166.292969 267.339844 166.367188 267.359375 166.496094 267.394531 C 166.625 267.421875 166.824219 267.488281 167.082031 267.519531 C 167.601562 267.609375 168.378906 267.640625 169.335938 267.484375 C 170.289062 267.332031 171.390625 266.945312 172.492188 266.355469 C 173.597656 265.761719 174.695312 264.960938 175.710938 264.042969 C 176.710938 263.136719 177.566406 262.238281 178.351562 261.449219 C 179.132812 260.664062 179.84375 259.972656 180.5 259.441406 C 181.152344 258.910156 181.734375 258.507812 182.167969 258.261719 C 182.378906 258.125 182.554688 258.046875 182.671875 257.976562 C 182.792969 257.910156 182.855469 257.875 182.855469 257.875 C 182.855469 257.875 182.78125 257.867188 182.648438 257.851562 C 182.515625 257.84375 182.308594 257.8125 182.050781 257.816406 C 181.527344 257.800781 180.757812 257.871094 179.835938 258.128906 C 178.914062 258.378906 177.867188 258.847656 176.816406 259.496094 C 175.769531 260.140625 174.726562 260.960938 173.738281 261.859375 C 172.800781 262.722656 171.90625 263.550781 171.082031 264.308594 C 170.269531 265.035156 169.515625 265.65625 168.816406 266.105469 " fill-opacity="1" fill-rule="nonzero"/><g clip-path="url(#d4e2a044ee)"><path fill="#f8f4ee" d="M 170.4375 259.78125 C 169.953125 260.375 169.417969 260.941406 168.914062 261.496094 C 168.410156 262.046875 167.953125 262.597656 167.617188 263.09375 C 167.273438 263.589844 167.046875 264.03125 166.921875 264.34375 C 166.792969 264.65625 166.746094 264.835938 166.746094 264.835938 C 166.746094 264.835938 166.898438 264.726562 167.160156 264.535156 C 167.425781 264.34375 167.8125 264.09375 168.296875 263.800781 C 168.777344 263.507812 169.355469 263.175781 169.996094 262.75 C 170.632812 262.320312 171.339844 261.773438 171.957031 261.023438 C 172.574219 260.265625 173.015625 259.359375 173.132812 258.433594 C 173.246094 257.519531 173.042969 256.707031 172.726562 256.125 C 172.40625 255.535156 171.992188 255.183594 171.683594 255.015625 C 171.53125 254.929688 171.410156 254.878906 171.320312 254.851562 C 171.238281 254.824219 171.191406 254.8125 171.191406 254.8125 C 171.191406 254.8125 171.21875 254.851562 171.273438 254.921875 C 171.324219 254.988281 171.390625 255.097656 171.46875 255.234375 C 171.621094 255.503906 171.761719 255.925781 171.792969 256.421875 C 171.824219 256.917969 171.742188 257.507812 171.519531 258.0625 C 171.300781 258.613281 170.914062 259.195312 170.4375 259.78125 " fill-opacity="1" fill-rule="nonzero"/></g><path fill="#f8f4ee" d="M 190.4375 258.875 C 191.40625 259.679688 192.5 260.96875 193.183594 262.566406 C 193.871094 264.164062 194.050781 265.847656 193.964844 267.105469 C 193.925781 267.734375 193.84375 268.257812 193.761719 268.621094 C 193.675781 268.984375 193.628906 269.191406 193.628906 269.191406 C 193.628906 269.191406 193.785156 269.050781 194.035156 268.757812 C 194.289062 268.460938 194.617188 267.996094 194.914062 267.351562 C 195.214844 266.707031 195.460938 265.871094 195.519531 264.90625 C 195.582031 263.941406 195.433594 262.847656 194.988281 261.792969 C 194.535156 260.746094 193.839844 259.882812 193.101562 259.265625 C 192.359375 258.640625 191.585938 258.246094 190.910156 258.015625 C 190.238281 257.789062 189.675781 257.707031 189.289062 257.6875 C 188.902344 257.664062 188.691406 257.679688 188.691406 257.679688 C 188.691406 257.679688 188.875 257.789062 189.199219 257.976562 C 189.515625 258.167969 189.953125 258.472656 190.4375 258.875 " fill-opacity="1" fill-rule="nonzero"/><path fill="#f8f4ee" d="M 168.757812 274.832031 C 168.066406 274.820312 167.511719 274.5 167.140625 274.152344 C 166.757812 273.800781 166.539062 273.429688 166.308594 273.152344 C 165.875 272.601562 165.582031 272.371094 165.207031 272.464844 C 165.03125 272.515625 164.898438 272.648438 164.867188 272.917969 C 164.847656 273.171875 164.941406 273.570312 165.285156 273.992188 C 165.625 274.410156 166.179688 274.707031 166.796875 274.84375 C 167.417969 274.988281 168.097656 274.972656 168.757812 274.832031 " fill-opacity="1" fill-rule="nonzero"/><path fill="#f8f4ee" d="M 167.472656 272.25 C 167.109375 272.28125 166.828125 272.453125 166.859375 272.804688 C 166.894531 273.160156 167.457031 273.535156 167.644531 274.054688 C 167.753906 273.507812 168.210938 273.03125 168.179688 272.679688 C 168.144531 272.328125 167.835938 272.214844 167.472656 272.25 " fill-opacity="1" fill-rule="nonzero"/><path fill="#f8f4ee" d="M 170.90625 272.460938 C 170.527344 272.5625 170.164062 272.84375 169.839844 273.199219 C 169.515625 273.550781 169.230469 273.972656 168.933594 274.394531 C 169.347656 274.070312 169.816406 273.929688 170.222656 273.871094 C 170.628906 273.808594 170.972656 273.816406 171.253906 273.738281 C 171.804688 273.597656 172.03125 273.324219 172.023438 272.949219 C 172.015625 272.597656 171.679688 272.265625 170.90625 272.460938 " fill-opacity="1" fill-rule="nonzero"/><g clip-path="url(#3d01996d90)"><path fill="#f8f4ee" d="M 166.847656 256.648438 C 166.839844 256.640625 166.828125 256.632812 166.8125 256.621094 C 166.847656 256.625 166.878906 256.625 166.910156 256.621094 C 166.886719 256.632812 166.867188 256.636719 166.847656 256.648438 Z M 165.160156 270.886719 C 165.246094 270.964844 165.292969 271.007812 165.292969 271.007812 C 165.292969 271.007812 165.257812 270.957031 165.191406 270.859375 C 165.121094 270.769531 165.039062 270.621094 164.929688 270.433594 C 164.734375 270.050781 164.511719 269.460938 164.457031 268.710938 C 164.398438 267.964844 164.492188 267.0625 164.828125 266.152344 C 165.15625 265.230469 165.722656 264.292969 166.410156 263.347656 C 166.75 262.875 167.101562 262.421875 167.445312 261.976562 C 167.785156 261.53125 168.132812 261.097656 168.421875 260.628906 C 168.710938 260.160156 168.941406 259.65625 169.027344 259.144531 C 169.117188 258.640625 169.074219 258.144531 168.917969 257.730469 C 168.765625 257.3125 168.476562 256.996094 168.1875 256.820312 C 167.898438 256.636719 167.609375 256.566406 167.375 256.558594 C 167.253906 256.554688 167.148438 256.5625 167.058594 256.582031 C 167.082031 256.574219 167.101562 256.5625 167.117188 256.550781 C 167.234375 256.460938 167.273438 256.347656 167.273438 256.347656 C 167.273438 256.347656 167.3125 256.230469 167.296875 256.09375 C 167.277344 255.953125 167.214844 255.800781 167.007812 255.671875 C 166.796875 255.542969 166.46875 255.417969 166.195312 255.25 C 165.921875 255.089844 165.710938 254.910156 165.710938 254.910156 C 165.710938 254.910156 165.691406 255.1875 165.804688 255.542969 C 165.90625 255.898438 166.175781 256.3125 166.480469 256.5 C 166.511719 256.519531 166.542969 256.535156 166.570312 256.550781 C 166.433594 256.546875 166.257812 256.605469 166.089844 256.847656 C 165.890625 257.125 165.789062 257.582031 165.785156 257.945312 C 165.777344 258.3125 165.847656 258.582031 165.847656 258.582031 C 165.847656 258.582031 166.019531 258.363281 166.246094 258.121094 C 166.46875 257.875 166.742188 257.621094 166.898438 257.40625 C 167.050781 257.1875 167.046875 257.011719 167 256.878906 C 166.96875 256.78125 166.914062 256.710938 166.882812 256.679688 C 166.996094 256.664062 167.15625 256.660156 167.355469 256.707031 C 167.75 256.800781 168.316406 257.183594 168.449219 257.871094 C 168.519531 258.207031 168.496094 258.601562 168.375 258.992188 C 168.253906 259.386719 168.027344 259.773438 167.738281 260.164062 C 167.445312 260.554688 167.085938 260.949219 166.714844 261.386719 C 166.347656 261.816406 165.972656 262.277344 165.613281 262.773438 C 164.890625 263.765625 164.316406 264.839844 164.035156 265.90625 C 163.75 266.976562 163.78125 267.992188 163.972656 268.789062 C 164.164062 269.59375 164.523438 270.171875 164.804688 270.519531 C 164.953125 270.6875 165.070312 270.816406 165.160156 270.886719 " fill-opacity="1" fill-rule="nonzero"/></g><path fill="#f8f4ee" d="M 166.078125 256.527344 C 166.078125 256.527344 166.105469 256.039062 165.703125 256.023438 C 165.300781 256.007812 164.621094 256.472656 164.621094 256.472656 C 164.621094 256.472656 165.261719 256.988281 165.664062 257.003906 C 166.066406 257.019531 166.078125 256.527344 166.078125 256.527344 " fill-opacity="1" fill-rule="nonzero"/></svg>